#!OML:ASF H:\MichaelJackson\Top Level 1\Subject 1\Session 1\male.ASF
:FULLY-SPECIFIED
:DEGREES
950
root 8.52741 16.1148 31.1407 -177.658 -202.756 -192.318
lowerback -0.26929 4.28657 2.56857
upperback -0.651444 5.77579 4.23531
thorax -0.705184 2.90479 2.88999
lowerneck -5.13042 -8.40408 -0.626318
upperneck 0.237272 -11.2107 2.57144
head 1.10872 -5.56174 0.602949
rclavicle -6.73562e-014 -1.4884e-014
rhumerus -43.5229 11.4275 -77.4874
rradius 56.6282
rwrist 7.78229
rhand -11.097 -19.8805
rfingers 7.12502
rthumb 14.9271 -409.323
lclavicle -6.73562e-014 -1.4884e-014
lhumerus -58.2967 -11.39 99.494
lradius 71.881
lwrist 21.7183
lhand 1.04167 20.0747
lfingers 7.12502
lthumb 26.5877 48.2283
rfemur -4.43018 -17.7496 33.8268
rtibia 38.9625
rfoot -27.8884 -7.24526
rtoes -4.81135
lfemur -43.5602 9.86849 -10.7125
ltibia 63.7617
lfoot -19.8981 -13.3823
ltoes 14.0362
951
root 8.55536 16.1557 31.2179 -177.918 -203.555 -192.431
lowerback -0.774021 4.20624 2.16639
upperback -0.696725 5.64824 4.30598
thorax -0.511196 2.84579 3.22379
lowerneck -5.11327 -8.6416 -0.656445
upperneck 0.426813 -11.5334 2.70004
head 1.18149 -5.71904 0.632142
rclavicle -6.32881e-014 -6.28657e-015
rhumerus -43.7266 11.4517 -77.236
rradius 57.6842
rwrist 7.00741
rhand -10.279 -18.4629
rfingers 7.12502
rthumb 15.7149 -407.845
lclavicle -6.32881e-014 -6.28657e-015
lhumerus -58.5662 -11.3662 99.4807
lradius 72.1111
lwrist 20.7791
lhand 1.98884 19.6154
lfingers 7.12502
lthumb 27.4939 47.6283
rfemur -4.84037 -18.5148 33.7206
rtibia 40.2767
rfoot -26.5103 -6.82874
rtoes -7.35522
lfemur -42.7393 8.64561 -10.6068
ltibia 61.5951
lfoot -19.7029 -14.0424
ltoes 17.9293
952
root 8.58933 16.1966 31.292 -178.207 -204.413 -192.51
lowerback -1.21862 4.06408 1.77812
upperback -0.743087 5.44467 4.38279
thorax -0.345495 2.74775 3.55058
lowerneck -5.08412 -8.84139 -0.668214
upperneck 0.645607 -11.8068 2.77122
head 1.25635 -5.85229 0.642202
rclavicle 9.40376e-014 4.88016e-014
rhumerus -43.9071 11.2693 -76.7767
rradius 58.7319
rwrist 5.95322
rhand -9.17952 -16.6547
rfingers 7.12502
rthumb 16.7736 -405.95
lclavicle 9.40376e-014 4.88016e-014
lhumerus -58.8353 -11.3246 99.4917
lradius 72.2848
lwrist 20.0636
lhand 2.6719 19.088
lfingers 7.12502
lthumb 28.147 46.9953
rfemur -5.56781 -19.5725 33.404
rtibia 42.1944
rfoot -24.7754 -5.84696
rtoes -9.63569
lfemur -41.8373 7.19106 -10.4884
ltibia 59.6519
lfoot -19.3646 -14.35
ltoes 21.8125
953
root 8.62847 16.2364 31.361 -178.559 -205.274 -192.547
lowerback -1.54 3.87411 1.39983
upperback -0.777724 5.18494 4.47212
thorax -0.230473 2.62089 3.87438
lowerneck -5.05718 -8.99964 -0.680397
upperneck 0.916318 -12.0252 2.7907
head 1.34416 -5.9583 0.636689
rclavicle -9.73299e-014 3.52843e-015
rhumerus -44.049 10.8905 -76.1082
rradius 59.7381
rwrist 4.38506
rhand -7.78152 -14.552
rfingers 7.12502
rthumb 18.119 -403.728
lclavicle -9.73299e-014 3.52843e-015
lhumerus -59.0917 -11.2716 99.5499
lradius 72.4024
lwrist 19.6775
lhand 3.1686 18.5842
lfingers 7.12502
lthumb 28.6216 46.4124
rfemur -6.57731 -20.8567 32.8276
rtibia 44.7252
rfoot -22.5171 -4.20812
rtoes -11.2799
lfemur -40.8174 5.56546 -10.3688
ltibia 57.956
lfoot -19.0081 -14.3138
ltoes 25.2756
954
root 8.67157 16.2743 31.4239 -178.992 -206.078 -192.547
lowerback -1.70403 3.65783 1.04703
upperback -0.794103 4.89695 4.57473
thorax -0.177687 2.47942 4.18602
lowerneck -5.03148 -9.11493 -0.696581
upperneck 1.23376 -12.1861 2.75911
head 1.44323 -6.036 0.616667
rclavicle 2.75193e-014 3.55825e-014
rhumerus -44.1496 10.3317 -75.2513
rradius 60.6815
rwrist 2.10306
rhand -6.09084 -12.3392
rfingers 7.12502
rthumb 19.745 -401.356
lclavicle 2.75193e-014 3.55825e-014
lhumerus -59.3295 -11.2333 99.6698
lradius 72.479
lwrist 19.6873
lhand 3.59402 18.1869
lfingers 7.12502
lthumb 29.028 45.9458
rfemur -7.82488 -22.2448 31.9767
rtibia 47.813
rfoot -19.5634 -1.89296
rtoes -11.9798
lfemur -39.6715 3.88069 -10.2688
ltibia 56.4993
lfoot -18.7229 -14.0149
ltoes 28.061
955
root 8.71709 16.3096 31.4802 -179.511 -206.765 -192.524
lowerback -1.70057 3.43679 0.736627
upperback -0.786385 4.60762 4.69172
thorax -0.187083 2.33704 4.47844
lowerneck -5.00613 -9.18571 -0.719669
upperneck 1.58936 -12.2868 2.68224
head 1.55123 -6.08418 0.584754
rclavicle -2.19812e-014 4.02539e-015
rhumerus -44.1936 9.64037 -74.2395
rradius 61.5389
rwrist -1.03855
rhand -4.07415 -10.2422
rfingers 7.12502
rthumb 21.6828 -399.048
lclavicle -2.19812e-014 4.02539e-015
lhumerus -59.5442 -11.2185 99.851
lradius 72.5396
lwrist 20.0958
lhand 4.06813 17.9928
lfingers 7.12502
lthumb 29.4807 45.6728
rfemur -9.25879 -23.5727 30.8652
rtibia 51.3526
rfoot -15.7697 0.986153
rtoes -11.7977
lfemur -38.4035 2.2782 -10.205
ltibia 55.2552
lfoot -18.5602 -13.5733
ltoes 30.1989
956
root 8.76338 16.3422 31.5307 -180.108 -207.282 -192.484
lowerback -1.54049 3.2281 0.473813
upperback -0.75176 4.33781 4.82036
thorax -0.251209 2.20433 4.74847
lowerneck -4.9763 -9.21101 -0.749692
upperneck 1.96323 -12.325 2.566
head 1.66137 -6.10213 0.543706
rclavicle 4.13845e-014 -2.14936e-014
rhumerus -44.1651 8.85925 -73.1105
rradius 62.291
rwrist -5.02355
rhand -1.71583 -8.51975
rfingers 7.12502
rthumb 23.9459 -397.047
lclavicle 4.13845e-014 -2.14936e-014
lhumerus -59.7415 -11.2392 100.088
lradius 72.6163
lwrist 20.8548
lhand 4.67078 18.0715
lfingers 7.12502
lthumb 30.0559 45.6486
rfemur -10.8339 -24.6725 29.5192
rtibia 55.2189
rfoot -11.0211 4.30354
rtoes -10.3861
lfemur -37.0282 0.906249 -10.2021
ltibia 54.1765
lfoot -18.5225 -13.0957
ltoes 31.7603
957
root 8.80866 16.3735 31.5761 -180.761 -207.606 -192.43
lowerback -1.24592 3.03902 0.254317
upperback -0.694798 4.09603 4.95734
thorax -0.364126 2.08571 4.99764
lowerneck -4.92646 -9.19071 -0.776297
upperneck 2.33436 -12.3003 2.40708
head 1.76321 -6.09011 0.492465
rclavicle -6.53481e-014 -3.26131e-014
rhumerus -44.0556 8.02331 -71.8983
rradius 62.9224
rwrist -9.69679
rhand 0.971956 -7.39508
rfingers 7.12502
rthumb 26.521 -395.559
lclavicle -6.53481e-014 -3.26131e-014
lhumerus -59.9334 -11.3052 100.375
lradius 72.7347
lwrist 21.8757
lhand 5.38987 18.4518
lfingers 7.12502
lthumb 30.7418 45.9022
rfemur -12.525 -25.4063 27.9856
rtibia 59.2875
rfoot -5.37444 7.82843
rtoes -8.11546
lfemur -35.5739 -0.117827 -10.2686
ltibia 53.2106
lfoot -18.5614 -12.6969
ltoes 32.8874
958
root 8.8514 16.4051 31.6175 -181.443 -207.738 -192.357
lowerback -0.839102 2.87053 0.0679202
upperback -0.623736 3.88299 5.09512
thorax -0.523076 1.98172 5.22571
lowerneck -4.84285 -9.12903 -0.796276
upperneck 2.68238 -12.2183 2.21797
head 1.8485 -6.05099 0.435468
rclavicle -1.60519e-014 -1.95182e-014
rhumerus -43.8691 7.15786 -70.6381
rradius 63.4176
rwrist -14.7432
rhand 3.84097 -7.00811
rfingers 7.12502
rthumb 29.2639 -394.726
lclavicle -1.60519e-014 -1.95182e-014
lhumerus -60.1346 -11.4343 100.708
lradius 72.9118
lwrist 23.0403
lhand 6.15582 19.0978
lfingers 7.12502
lthumb 31.4718 46.4083
rfemur -14.3299 -25.6858 26.3133
rtibia 63.4543
rfoot 0.937574 11.2919
rtoes -5.7371
lfemur -34.0702 -0.732537 -10.3985
ltibia 52.305
lfoot -18.603 -12.4662
ltoes 33.7645
959
root 8.89045 16.4384 31.6554 -182.129 -207.7 -192.262
lowerback -0.346772 2.7188 -0.0962111
upperback -0.540921 3.69276 5.2254
thorax -0.715933 1.88932 5.43209
lowerneck -4.73163 -9.03046 -0.800847
upperneck 2.9944 -12.0853 2.00794
head 1.91429 -5.98774 0.373997
rclavicle -7.53736e-014 1.76421e-014
rhumerus -43.61 6.2823 -69.366
rradius 63.7599
rwrist -19.7685
rhand 6.60811 -7.39031
rfingers 7.12502
rthumb 31.9026 -394.616
lclavicle -7.53736e-014 1.76421e-014
lhumerus -60.3472 -11.6565 101.08
lradius 73.1513
lwrist 24.2139
lhand 6.85677 19.9438
lfingers 7.12502
lthumb 32.1393 47.1217
rfemur -16.2606 -25.4746 24.5518
rtibia 67.6441
rfoot 7.62092 14.4725
rtoes -3.73787
lfemur -32.5538 -0.934633 -10.5694
ltibia 51.4222
lfoot -18.5128 -12.476
ltoes 34.6882
